<svg height="496pt" viewBox="0 0 496 496" width="496pt" xmlns="http://www.w3.org/2000/svg" xmlns:xlink="http://www.w3.org/1999/xlink"><linearGradient id="a"><stop offset="0" stop-color="#003f8a"/><stop offset=".518" stop-color="#00d7df"/><stop offset="1" stop-color="#006df0"/></linearGradient><linearGradient id="b" gradientUnits="userSpaceOnUse" x1="-18.672" x2="500.848" xlink:href="#a" y1="514.672" y2="-4.848"/><linearGradient id="c" gradientUnits="userSpaceOnUse" x1="-34.672" x2="484.848" xlink:href="#a" y1="498.672" y2="-20.848"/><linearGradient id="d" gradientUnits="userSpaceOnUse" x1="139.328" x2="658.848" xlink:href="#a" y1="672.672" y2="153.152"/><linearGradient id="e" gradientUnits="userSpaceOnUse" x1="167.328" x2="686.848" xlink:href="#a" y1="700.672" y2="181.152"/><path d="m488 48c4.417969 0 8-3.582031 8-8v-32c0-4.417969-3.582031-8-8-8h-32c-4.417969 0-8 3.582031-8 8v8h-176v-8c0-4.417969-3.582031-8-8-8h-32c-4.417969 0-8 3.582031-8 8v8h-176v-8c0-4.417969-3.582031-8-8-8h-32c-4.417969 0-8 3.582031-8 8v32c0 4.417969 3.582031 8 8 8h8v176h-8c-4.417969 0-8 3.582031-8 8v32c0 4.417969 3.582031 8 8 8h8v176h-8c-4.417969 0-8 3.582031-8 8v32c0 4.417969 3.582031 8 8 8h32c4.417969 0 8-3.582031 8-8v-8h176v8c0 4.417969 3.582031 8 8 8h32c4.417969 0 8-3.582031 8-8v-8h176v8c0 4.417969 3.582031 8 8 8h32c4.417969 0 8-3.582031 8-8v-32c0-4.417969-3.582031-8-8-8h-8v-176h8c4.417969 0 8-3.582031 8-8v-32c0-4.417969-3.582031-8-8-8h-8v-176zm-24-32h16v16h-16zm-224 0h16v16h-16zm-224 0h16v16h-16zm0 224h16v16h-16zm16 240h-16v-16h16zm224 0h-16v-16h16zm224 0h-16v-16h16zm0-224h-16v-16h16zm-16-32h-8c-4.417969 0-8 3.582031-8 8v32c0 4.417969 3.582031 8 8 8h8v176h-8c-4.417969 0-8 3.582031-8 8v8h-176v-8c0-4.417969-3.582031-8-8-8h-32c-4.417969 0-8 3.582031-8 8v8h-176v-8c0-4.417969-3.582031-8-8-8h-8v-176h8c4.417969 0 8-3.582031 8-8v-32c0-4.417969-3.582031-8-8-8h-8v-176h8c4.417969 0 8-3.582031 8-8v-8h176v8c0 4.417969 3.582031 8 8 8h32c4.417969 0 8-3.582031 8-8v-8h176v8c0 4.417969 3.582031 8 8 8h8zm0 0" fill="url(#b)"/><path d="m280 352h-24v-192h96v16c0 4.417969 3.582031 8 8 8s8-3.582031 8-8v-24c0-4.417969-3.582031-8-8-8h-224c-4.417969 0-8 3.582031-8 8v24c0 4.417969 3.582031 8 8 8s8-3.582031 8-8v-16h96v192h-24c-4.417969 0-8 3.582031-8 8s3.582031 8 8 8h64c4.417969 0 8-3.582031 8-8s-3.582031-8-8-8zm0 0" fill="url(#c)"/><path d="m408 424h-56c-4.417969 0-8 3.582031-8 8s3.582031 8 8 8h56c4.417969 0 8-3.582031 8-8s-3.582031-8-8-8zm0 0" fill="url(#d)"/><path d="m440 424h-8c-4.417969 0-8 3.582031-8 8s3.582031 8 8 8h8c4.417969 0 8-3.582031 8-8s-3.582031-8-8-8zm0 0" fill="url(#e)"/></svg>